<mxfile host="app.diagrams.net" modified="2023-09-11T19:37:45.051Z" agent="Mozilla/5.0 (Windows NT 10.0; Win64; x64) AppleWebKit/537.36 (KHTML, like Gecko) Chrome/116.0.0.0 Safari/537.36" etag="hu830eeSWY3KMnjq8L5N" version="21.6.9" type="device">
  <diagram name="PÃ¡gina-1" id="n43PGUwGe6bY8UH6iurJ">
    <mxGraphModel dx="1050" dy="574" grid="1" gridSize="10" guides="1" tooltips="1" connect="1" arrows="1" fold="1" page="1" pageScale="1" pageWidth="827" pageHeight="1169" math="0" shadow="0">
      <root>
        <mxCell id="0" />
        <mxCell id="1" parent="0" />
        <mxCell id="Snnqn26lmNHYW8X-2z1D-1" value="VeighFood" style="swimlane;fontStyle=1;align=center;verticalAlign=top;childLayout=stackLayout;horizontal=1;startSize=26;horizontalStack=0;resizeParent=1;resizeParentMax=0;resizeLast=0;collapsible=1;marginBottom=0;whiteSpace=wrap;html=1;" vertex="1" parent="1">
          <mxGeometry x="320" width="320" height="390" as="geometry" />
        </mxCell>
        <mxCell id="Snnqn26lmNHYW8X-2z1D-2" value="+ cliente: string&lt;br&gt;+ produto: string&lt;br&gt;+ pedidos: string&lt;br&gt;+ categorias: string&lt;br&gt;+quantidade: int" style="text;strokeColor=none;fillColor=none;align=left;verticalAlign=top;spacingLeft=4;spacingRight=4;overflow=hidden;rotatable=0;points=[[0,0.5],[1,0.5]];portConstraint=eastwest;whiteSpace=wrap;html=1;" vertex="1" parent="Snnqn26lmNHYW8X-2z1D-1">
          <mxGeometry y="26" width="320" height="174" as="geometry" />
        </mxCell>
        <mxCell id="Snnqn26lmNHYW8X-2z1D-3" value="" style="line;strokeWidth=1;fillColor=none;align=left;verticalAlign=middle;spacingTop=-1;spacingLeft=3;spacingRight=3;rotatable=0;labelPosition=right;points=[];portConstraint=eastwest;strokeColor=inherit;" vertex="1" parent="Snnqn26lmNHYW8X-2z1D-1">
          <mxGeometry y="200" width="320" height="8" as="geometry" />
        </mxCell>
        <mxCell id="Snnqn26lmNHYW8X-2z1D-4" value="+ cliente(): email, nome , cpf&lt;br&gt;" style="text;strokeColor=none;fillColor=none;align=left;verticalAlign=top;spacingLeft=4;spacingRight=4;overflow=hidden;rotatable=0;points=[[0,0.5],[1,0.5]];portConstraint=eastwest;whiteSpace=wrap;html=1;" vertex="1" parent="Snnqn26lmNHYW8X-2z1D-1">
          <mxGeometry y="208" width="320" height="182" as="geometry" />
        </mxCell>
        <mxCell id="Snnqn26lmNHYW8X-2z1D-5" value="VeighFood" style="swimlane;fontStyle=1;align=center;verticalAlign=top;childLayout=stackLayout;horizontal=1;startSize=26;horizontalStack=0;resizeParent=1;resizeParentMax=0;resizeLast=0;collapsible=1;marginBottom=0;whiteSpace=wrap;html=1;" vertex="1" parent="1">
          <mxGeometry width="320" height="390" as="geometry" />
        </mxCell>
        <mxCell id="Snnqn26lmNHYW8X-2z1D-6" value="+ cliente: string&lt;br&gt;+ produto: string&lt;br&gt;+ pedidos: string&lt;br&gt;+ categorias: string&lt;br&gt;+quantidade: int" style="text;strokeColor=none;fillColor=none;align=left;verticalAlign=top;spacingLeft=4;spacingRight=4;overflow=hidden;rotatable=0;points=[[0,0.5],[1,0.5]];portConstraint=eastwest;whiteSpace=wrap;html=1;" vertex="1" parent="Snnqn26lmNHYW8X-2z1D-5">
          <mxGeometry y="26" width="320" height="174" as="geometry" />
        </mxCell>
        <mxCell id="Snnqn26lmNHYW8X-2z1D-7" value="" style="line;strokeWidth=1;fillColor=none;align=left;verticalAlign=middle;spacingTop=-1;spacingLeft=3;spacingRight=3;rotatable=0;labelPosition=right;points=[];portConstraint=eastwest;strokeColor=inherit;" vertex="1" parent="Snnqn26lmNHYW8X-2z1D-5">
          <mxGeometry y="200" width="320" height="8" as="geometry" />
        </mxCell>
        <mxCell id="Snnqn26lmNHYW8X-2z1D-8" value="+ produto(): ingredientes, ml, medidas&lt;br&gt;" style="text;strokeColor=none;fillColor=none;align=left;verticalAlign=top;spacingLeft=4;spacingRight=4;overflow=hidden;rotatable=0;points=[[0,0.5],[1,0.5]];portConstraint=eastwest;whiteSpace=wrap;html=1;" vertex="1" parent="Snnqn26lmNHYW8X-2z1D-5">
          <mxGeometry y="208" width="320" height="182" as="geometry" />
        </mxCell>
        <mxCell id="Snnqn26lmNHYW8X-2z1D-9" value="VeighFood" style="swimlane;fontStyle=1;align=center;verticalAlign=top;childLayout=stackLayout;horizontal=1;startSize=26;horizontalStack=0;resizeParent=1;resizeParentMax=0;resizeLast=0;collapsible=1;marginBottom=0;whiteSpace=wrap;html=1;" vertex="1" parent="1">
          <mxGeometry y="390" width="320" height="390" as="geometry" />
        </mxCell>
        <mxCell id="Snnqn26lmNHYW8X-2z1D-10" value="+ cliente: string&lt;br&gt;+ produto: string&lt;br&gt;+ pedidos: string&lt;br&gt;+ categorias: string&lt;br&gt;+quantidade: int" style="text;strokeColor=none;fillColor=none;align=left;verticalAlign=top;spacingLeft=4;spacingRight=4;overflow=hidden;rotatable=0;points=[[0,0.5],[1,0.5]];portConstraint=eastwest;whiteSpace=wrap;html=1;" vertex="1" parent="Snnqn26lmNHYW8X-2z1D-9">
          <mxGeometry y="26" width="320" height="174" as="geometry" />
        </mxCell>
        <mxCell id="Snnqn26lmNHYW8X-2z1D-11" value="" style="line;strokeWidth=1;fillColor=none;align=left;verticalAlign=middle;spacingTop=-1;spacingLeft=3;spacingRight=3;rotatable=0;labelPosition=right;points=[];portConstraint=eastwest;strokeColor=inherit;" vertex="1" parent="Snnqn26lmNHYW8X-2z1D-9">
          <mxGeometry y="200" width="320" height="8" as="geometry" />
        </mxCell>
        <mxCell id="Snnqn26lmNHYW8X-2z1D-12" value="+ cliente(): email, nome , cpf&lt;br&gt;+ produto(): ingredientes, ml, medidas&lt;br&gt;+ pedidos(): produto, nome&lt;br&gt;+ categorias(): queijo, leite, iogurte&lt;br&gt;+quantidade(): unidades" style="text;strokeColor=none;fillColor=none;align=left;verticalAlign=top;spacingLeft=4;spacingRight=4;overflow=hidden;rotatable=0;points=[[0,0.5],[1,0.5]];portConstraint=eastwest;whiteSpace=wrap;html=1;" vertex="1" parent="Snnqn26lmNHYW8X-2z1D-9">
          <mxGeometry y="208" width="320" height="182" as="geometry" />
        </mxCell>
        <mxCell id="Snnqn26lmNHYW8X-2z1D-13" value="VeighFood" style="swimlane;fontStyle=1;align=center;verticalAlign=top;childLayout=stackLayout;horizontal=1;startSize=26;horizontalStack=0;resizeParent=1;resizeParentMax=0;resizeLast=0;collapsible=1;marginBottom=0;whiteSpace=wrap;html=1;" vertex="1" parent="1">
          <mxGeometry x="320" y="390" width="320" height="390" as="geometry" />
        </mxCell>
        <mxCell id="Snnqn26lmNHYW8X-2z1D-14" value="+ cliente: string&lt;br&gt;+ produto: string&lt;br&gt;+ pedidos: string&lt;br&gt;+ categorias: string&lt;br&gt;+quantidade: int" style="text;strokeColor=none;fillColor=none;align=left;verticalAlign=top;spacingLeft=4;spacingRight=4;overflow=hidden;rotatable=0;points=[[0,0.5],[1,0.5]];portConstraint=eastwest;whiteSpace=wrap;html=1;" vertex="1" parent="Snnqn26lmNHYW8X-2z1D-13">
          <mxGeometry y="26" width="320" height="174" as="geometry" />
        </mxCell>
        <mxCell id="Snnqn26lmNHYW8X-2z1D-15" value="" style="line;strokeWidth=1;fillColor=none;align=left;verticalAlign=middle;spacingTop=-1;spacingLeft=3;spacingRight=3;rotatable=0;labelPosition=right;points=[];portConstraint=eastwest;strokeColor=inherit;" vertex="1" parent="Snnqn26lmNHYW8X-2z1D-13">
          <mxGeometry y="200" width="320" height="8" as="geometry" />
        </mxCell>
        <mxCell id="Snnqn26lmNHYW8X-2z1D-16" value="+ cliente(): email, nome , cpf&lt;br&gt;+ produto(): ingredientes, ml, medidas&lt;br&gt;+ pedidos(): produto, nome&lt;br&gt;" style="text;strokeColor=none;fillColor=none;align=left;verticalAlign=top;spacingLeft=4;spacingRight=4;overflow=hidden;rotatable=0;points=[[0,0.5],[1,0.5]];portConstraint=eastwest;whiteSpace=wrap;html=1;" vertex="1" parent="Snnqn26lmNHYW8X-2z1D-13">
          <mxGeometry y="208" width="320" height="182" as="geometry" />
        </mxCell>
      </root>
    </mxGraphModel>
  </diagram>
</mxfile>
